<?xml version="1.0" encoding="UTF-8"?>
<svg version="1.1" xmlns="http://www.w3.org/2000/svg" width="1024" height="1024">
<path d="M0 0 C337.92 0 675.84 0 1024 0 C1024 337.92 1024 675.84 1024 1024 C686.08 1024 348.16 1024 0 1024 C0 686.08 0 348.16 0 0 Z " fill="#FEFEFE" transform="translate(0,0)"/>
<path d="M0 0 C114.84 0 229.68 0 348 0 C352.49964126 11.24910314 352.49964126 11.24910314 354.34326172 16.72680664 C354.75878296 17.95668808 355.1743042 19.18656952 355.60241699 20.45372009 C356.04488036 21.77251877 356.4873027 23.09133121 356.9296875 24.41015625 C357.40098218 25.80811785 357.87254624 27.20598865 358.34436035 28.60377502 C359.34121385 31.55859197 360.33642151 34.51395563 361.33026123 37.4697876 C362.89125604 42.11218849 364.45615209 46.75326782 366.02197266 51.39404297 C366.28176092 52.16402241 366.54154919 52.93400185 366.80920982 53.727314 C367.33163102 55.27567244 367.85406583 56.82402629 368.37651443 58.37237549 C369.15445041 60.67825958 369.93204419 62.98425883 370.70956421 65.2902832 C374.57204412 76.74410951 378.46009632 88.18897775 382.375 99.625 C383.45848408 102.7916151 384.54177999 105.95829455 385.625 109.125 C386.02664368 110.29900108 386.02664368 110.29900108 386.43640137 111.49671936 C390.09700158 122.20124078 393.73482221 132.91352089 397.375 143.625 C398.81898397 147.8737069 400.26299971 152.12240301 401.70703125 156.37109375 C402.24333916 157.94907997 402.24333916 157.94907997 402.79048157 159.5589447 C406.54430053 170.60299507 410.30293345 181.64540511 414.0625 192.6875 C414.39054626 193.65101379 414.71859253 194.61452759 415.05657959 195.60723877 C416.70969971 200.46262547 418.36288759 205.31798909 420.01611328 210.17333984 C423.67837401 220.9291585 427.33974255 231.68528091 431.00128174 242.44134521 C432.00215115 245.38147157 433.00302637 248.32159595 434.00390625 251.26171875 C434.33410767 252.231698 434.66430908 253.20167725 435.0045166 254.2010498 C436.99426879 260.04593166 438.98422122 265.8907453 440.97433472 271.73550415 C448.51188745 293.87255131 456.04486991 316.01114366 463.57147217 338.1519165 C470.71353003 359.16115448 477.86375748 380.16760582 485.01611328 401.17333984 C488.01081463 409.96858054 491.00487638 418.76403897 493.99899292 427.55947876 C495.6659697 432.45632788 497.33298687 437.35316325 499 442.25 C499.66666686 444.20833327 500.33333353 446.1666666 501 448.125 C501.33 449.094375 501.66 450.06375 502 451.0625 C505.00000002 459.87500005 505.00000002 459.87500005 505.99981689 462.81196594 C506.66709081 464.77208052 507.33436783 466.73219405 508.00164795 468.69230652 C509.65904907 473.56087812 511.31639778 478.42946756 512.97363281 483.2980957 C516.08397823 492.43549158 519.19485777 501.57270464 522.30749512 510.70932007 C523.7699722 515.00227265 525.23216468 519.29532215 526.69433594 523.58837891 C527.3882044 525.62537388 528.08221071 527.66232191 528.77636719 529.69921875 C530.60193598 535.05612776 532.42414971 540.41415117 534.2421875 545.77362061 C534.92979785 547.79375292 535.62376472 549.81154947 536.3203125 551.82861328 C536.68382812 552.89192871 537.04734375 553.95524414 537.421875 555.05078125 C537.87191895 556.35462769 537.87191895 556.35462769 538.33105469 557.68481445 C539.40390867 561.39790727 539.54876091 564.15867362 539 568 C537.12984906 570.43119623 535.71861655 571.64069173 533 573 C530.08722498 573.12435969 527.19704849 573.18762842 524.28300476 573.20773315 C523.36914641 573.21775993 522.45528805 573.22778672 521.51373702 573.23811734 C518.43195569 573.27036509 515.35016161 573.29520011 512.26831055 573.31982422 C510.06566125 573.34081299 507.86301438 573.36205931 505.66036987 573.38354492 C485.48489153 573.57186226 465.30858138 573.67444128 445.13241863 573.75568962 C442.42755231 573.76677666 439.72268694 573.778069 437.01782227 573.78955078 C436.34559223 573.79239532 435.6733622 573.79523985 434.98076157 573.79817058 C424.13403718 573.84546988 413.28829944 573.94163674 402.44211008 574.05712186 C391.28314377 574.17493955 380.12458078 574.24145578 368.96499854 574.26382077 C362.70869117 574.27783227 356.45437266 574.31381622 350.19867516 574.405056 C344.29558857 574.4902546 338.39542418 574.51230294 332.49180222 574.48869324 C330.34126489 574.49065121 328.19060235 574.51436913 326.04061699 574.56312943 C310.02007445 574.90751217 300.04883574 570.901212 287.10268271 561.50544953 C284.39164722 559.56444004 281.59514852 557.8578311 278.7265625 556.16015625 C277.87513672 555.64259766 277.02371094 555.12503906 276.14648438 554.59179688 C274.89834961 553.83479492 274.89834961 553.83479492 273.625 553.0625 C271.69009034 551.8867415 269.75519493 550.71095956 267.8203125 549.53515625 C266.85899414 548.95137207 265.89767578 548.36758789 264.90722656 547.76611328 C260.10276528 544.84744744 255.30150459 541.92352643 250.5 539 C244.51693563 535.35721482 238.53305097 531.71579522 232.546875 528.078125 C231.49306641 527.43746094 230.43925781 526.79679688 229.35351562 526.13671875 C227.32648753 524.90442854 225.29915699 523.67263565 223.27148438 522.44140625 C221.90733398 521.61189453 221.90733398 521.61189453 220.515625 520.765625 C219.71415039 520.27868164 218.91267578 519.79173828 218.08691406 519.29003906 C216.36922099 518.22823628 214.68022553 517.12015035 213 516 C213.50756265 510.52005732 214.1032318 505.05727346 214.796875 499.59765625 C218.86666906 467.54316245 222.27173655 435.3314049 224.45556641 403.09008789 C224.51663574 402.19668701 224.57770508 401.30328613 224.640625 400.3828125 C224.68735352 399.64434082 224.73408203 398.90586914 224.78222656 398.14501953 C225.02834857 395.72077298 225.48916868 393.38126787 226 391 C232.59841271 392.21043156 238.97049788 393.7609595 245.375 395.75 C247.13277423 396.28658371 248.89058786 396.82303839 250.6484375 397.359375 C251.5362793 397.63201172 252.42412109 397.90464844 253.33886719 398.18554688 C257.55371105 399.47552111 261.77705315 400.73686043 266 402 C267.6667115 402.49985053 269.33337809 402.99985083 271 403.5 C272.2375 403.87125 272.2375 403.87125 273.5 404.25 C302.66666667 413 331.83333333 421.75 361 430.5 C361.82612793 430.74782227 362.65225586 430.99564453 363.50341797 431.25097656 C365.1587273 431.74760174 366.81400114 432.24434521 368.46923828 432.74121094 C372.80937844 434.0438521 377.15024046 435.34401815 381.4921875 436.640625 C382.39324219 436.91003906 383.29429687 437.17945313 384.22265625 437.45703125 C385.94117802 437.97081611 387.65991479 438.48388257 389.37890625 438.99609375 C390.15878906 439.22941406 390.93867187 439.46273438 391.7421875 439.703125 C392.47791992 439.92162109 393.21365234 440.14011719 393.97167969 440.36523438 C395.75532909 440.9234299 397.51010604 441.57217447 399.2578125 442.234375 C402.2772431 443.07740691 404.02292441 442.87561047 407 442 C408.84824756 432.47872468 410.56092688 422.93657291 412.1875 413.375 C412.45578613 411.8290918 412.45578613 411.8290918 412.72949219 410.25195312 C413.19144996 407.50542054 413.60656418 404.75705201 414 402 C414.17144531 400.88238281 414.34289062 399.76476562 414.51953125 398.61328125 C413.8497727 395.24434537 412.22449169 394.06163663 409.48242188 392.12231445 C408.82822266 391.69007568 408.17402344 391.25783691 407.5 390.8125 C406.82001953 390.33965576 406.14003906 389.86681152 405.43945312 389.37963867 C403.30510465 387.90112708 401.15362532 386.45023944 399 385 C397.74853507 384.13753848 396.49847892 383.27302836 395.25 382.40625 C392.66825491 380.61747916 390.07908712 378.84021956 387.484375 377.0703125 C382.21851875 373.47301179 376.98408663 369.83080931 371.75 366.1875 C370.27563477 365.16136597 370.27563477 365.16136597 368.77148438 364.11450195 C361.69040919 359.18320493 354.61982449 354.23705751 347.55297852 349.28540039 C338.35858406 342.84541795 329.1407827 336.4391552 319.92333984 330.03222656 C314.1585586 326.02470701 308.39561037 322.01455202 302.63232422 318.00488281 C297.80367052 314.64560511 292.97456382 311.28698241 288.14453125 307.9296875 C255.72818732 285.39495597 255.72818732 285.39495597 242.8125 276.1875 C242.22976318 275.77258301 241.64702637 275.35766602 241.04663086 274.93017578 C237.12367403 272.12367403 237.12367403 272.12367403 236 271 C235.64034856 264.95361662 235.9866461 258.89522364 236.60105896 252.87728882 C239.05150882 228.81666386 240.35636216 204.85972177 240.31567383 180.67578125 C240.31248925 176.73670316 240.33620952 172.79836272 240.36132812 168.859375 C240.50794435 122.77293247 240.50794435 122.77293247 219.42578125 83.19140625 C208.58908166 73.40173078 196.15376 70.66930316 181.89453125 70.78125 C168.04882469 71.55894265 157.32949251 76.8320727 148 87 C137.08903094 101.94971923 134.57847901 119.16865699 132 137 C131.82275391 137.98959717 131.64550781 138.97919434 131.46289062 139.9987793 C130.64717116 145.77760584 130.81716926 151.63753709 130.796875 157.4609375 C130.79003402 158.7970279 130.78313054 160.13311799 130.77616882 161.46920776 C130.75704704 165.77114002 130.75275484 170.07303115 130.75 174.375 C130.748969 175.10528915 130.747938 175.83557831 130.74687576 176.58799744 C130.72215581 195.1862248 130.92425028 213.70079288 132.4375 232.25 C132.50256744 233.07159607 132.56763489 233.89319214 132.63467407 234.73968506 C133.22568845 242.12222265 133.91791539 249.47876166 134.84375 256.828125 C136.25799161 269.20503 136.25799161 269.20503 133.05078125 273.78125 C130.47880817 275.81874053 127.91593867 277.39532752 125.00585938 278.90087891 C121.13964196 281.01939288 117.60731398 283.66182381 114 286.1875 C112.35441642 287.30957091 110.7072507 288.42932468 109.05859375 289.546875 C104.03082606 292.9692921 99.04166446 296.44485737 94.0625 299.9375 C92.8245166 300.80568359 92.8245166 300.80568359 91.56152344 301.69140625 C89.04056359 303.46029445 86.52026966 305.23012861 84 307 C74.04839063 313.98371827 64.09082073 320.95596866 54.06176758 327.828125 C47.98454668 331.99795214 41.94842273 336.2255062 35.9140625 340.45703125 C29.453191 344.98650414 22.97936267 349.49702454 16.5 354 C9.32447554 358.98743465 2.15629104 363.98500654 -5 369 C-12.4503007 374.21988862 -19.90920469 379.4272944 -27.375 384.625 C-28.344375 385.30046875 -29.31375 385.9759375 -30.3125 386.671875 C-34.84633343 389.82640136 -39.3877289 392.9611458 -44 396 C-43.36966354 402.02873664 -42.57809818 407.99304403 -41.58984375 413.97265625 C-41.45808243 414.78117538 -41.32632111 415.58969452 -41.19056702 416.42271423 C-40.77500522 418.96966265 -40.35631048 421.51608399 -39.9375 424.0625 C-39.65278616 425.80400236 -39.3682791 427.54553854 -39.08398438 429.28710938 C-38.39170944 433.52513376 -37.69662704 437.76268891 -37 442 C-33.25549993 442.98212319 -30.95412141 442.98098054 -27.296875 441.7421875 C-26.40790527 441.44884521 -25.51893555 441.15550293 -24.60302734 440.85327148 C-23.66152832 440.53044189 -22.7200293 440.2076123 -21.75 439.875 C-19.75830668 439.21595257 -17.76611366 438.5584135 -15.7734375 437.90234375 C-14.79084961 437.5760498 -13.80826172 437.24975586 -12.79589844 436.91357422 C-9.01059908 435.67670815 -5.20064395 434.5420711 -1.375 433.4375 C-0.00385868 433.03922622 1.36723462 432.64078712 2.73828125 432.2421875 C3.77202881 431.94199707 3.77202881 431.94199707 4.82666016 431.63574219 C8.82808821 430.46525031 12.81995766 429.26288481 16.8125 428.0625 C17.6492627 427.81105225 18.48602539 427.55960449 19.34814453 427.30053711 C21.04935622 426.78919496 22.75052794 426.27771978 24.45166016 425.76611328 C28.63386014 424.50880886 32.81697021 423.25454032 37 422 C38.66667115 421.50001494 40.33333781 421.00001493 42 420.5 C92 405.5 92 405.5 94.50170898 404.74951172 C96.16269697 404.25119909 97.82366712 403.75282702 99.48461914 403.25439453 C103.73802284 401.97808126 107.99176373 400.70290995 112.24609375 399.4296875 C113.10847656 399.1713916 113.97085937 398.9130957 114.859375 398.64697266 C116.55841191 398.13822695 118.25762661 397.63007459 119.95703125 397.12255859 C123.64755068 396.01790831 127.33299152 394.90268835 131.00390625 393.734375 C132.15761719 393.36828125 133.31132812 393.0021875 134.5 392.625 C135.4796875 392.30789063 136.459375 391.99078125 137.46875 391.6640625 C140 391 140 391 144 391 C145.27680092 393.55360184 145.32794037 395.65619789 145.5690918 398.50805664 C145.66998611 399.67280014 145.77088043 400.83754364 145.87483215 402.0375824 C145.98187973 403.31553177 146.08892731 404.59348114 146.19921875 405.91015625 C146.31545797 407.25440718 146.43226574 408.59860905 146.54960632 409.94276428 C146.80037701 412.81697062 147.04968682 415.69129707 147.29779053 418.56573486 C149.45611547 443.51721371 151.91917519 468.38177671 155.1706543 493.21899414 C155.29382523 494.16947128 155.41699615 495.11994843 155.54389954 496.09922791 C155.77022649 497.83629094 156.00126405 499.5727511 156.2384491 501.30836487 C156.88670728 506.25052131 157.27825693 511.01427855 157 516 C154.921875 518.15234375 154.921875 518.15234375 151.75 519.9375 C150.45562018 520.69642874 149.16136062 521.4555626 147.8671875 522.21484375 C147.11147461 522.64394043 146.35576172 523.07303711 145.57714844 523.51513672 C141.47813398 525.87684626 137.45691449 528.36447283 133.42163086 530.83300781 C129.79230997 533.05315592 126.15293156 535.25645628 122.51171875 537.45703125 C115.80302563 541.51287804 109.10012068 545.57817719 102.39971924 549.64770508 C100.78537605 550.62806192 99.17077257 551.60799012 97.55615234 552.58789062 C95.98728271 553.54018555 95.98728271 553.54018555 94.38671875 554.51171875 C92.78142335 555.46004169 92.78142335 555.46004169 91.14369774 556.42752266 C88.03955924 558.30313525 85.09244963 560.33726147 82.13997841 562.44270134 C67.45282852 572.59335015 56.22395269 575.00975605 38.61083984 574.65283203 C36.16237556 574.65543914 33.71391147 574.66417891 31.26548767 574.67849731 C25.3709839 574.69722496 19.47911555 574.65229127 13.58526836 574.57647015 C6.70788841 574.49112513 -0.16898011 574.48331473 -7.04680924 574.47843145 C-19.3134082 574.46736586 -31.57870158 574.39131368 -43.84472656 574.27587891 C-55.73054722 574.16411091 -67.61562091 574.09358376 -79.50195312 574.07080078 C-80.60429149 574.06867601 -80.60429149 574.06867601 -81.72889931 574.06650831 C-83.2095198 574.0636897 -84.69014031 574.0608809 -86.17076083 574.05808198 C-86.9012345 574.05670059 -87.63170817 574.0553192 -88.3843174 574.05389595 C-89.11302763 574.05253909 -89.84173787 574.05118223 -90.59253023 574.04978425 C-101.95871926 574.02732964 -113.32478748 573.97339262 -124.69083519 573.91383926 C-128.11725543 573.89599506 -131.54367003 573.8796251 -134.97011232 573.86661768 C-142.76743037 573.83683124 -150.56425024 573.78849698 -158.36124992 573.70853806 C-160.72312632 573.68724137 -163.08507412 573.67266734 -165.44703484 573.66523743 C-168.66534968 573.65378936 -171.88246257 573.61780511 -175.10049438 573.57522583 C-176.50838413 573.57837836 -176.50838413 573.57837836 -177.9447161 573.58159459 C-182.15597993 573.50061267 -184.41501095 573.36577409 -188.0562191 571.08904839 C-190.82270788 568.11580746 -191.33120009 566.1553333 -191.25927734 562.09326172 C-190.73348036 557.848268 -188.91445406 553.99850591 -187.3125 550.0625 C-182.09750104 536.76951273 -177.76517548 523.22295516 -173.4309082 509.62329102 C-173.1596965 508.77606476 -172.8884848 507.9288385 -172.60905457 507.05593872 C-172.10006507 505.46452311 -171.59415022 503.8721193 -171.09199524 502.27853394 C-170.0285298 498.95128297 -168.89951137 495.76619425 -167.51806641 492.55200195 C-165.70047241 488.2991594 -164.291784 483.98214254 -162.890625 479.578125 C-162.2942828 477.72786073 -161.69792821 475.87760045 -161.1015625 474.02734375 C-160.18146925 471.15873199 -159.26270141 468.28970048 -158.34472656 465.42041016 C-154.95783693 454.84971064 -151.45675333 444.35974837 -147.55784607 433.96626282 C-144.3567863 425.38198967 -141.58306273 416.66823468 -138.8125 407.9375 C-133.22330248 390.34227286 -133.22330248 390.34227286 -131.01171875 385.03515625 C-127.82608996 377.38326445 -125.51037223 369.3921764 -123 361.5 C-117.21539494 343.3142015 -117.21539494 343.3142015 -114.0546875 335.73242188 C-111.37059937 328.77864541 -109.25863319 321.60075238 -107 314.5 C-101.21539494 296.3142015 -101.21539494 296.3142015 -98.0546875 288.73242188 C-95.37059937 281.77864541 -93.25863319 274.60075238 -91 267.5 C-85.21539494 249.3142015 -85.21539494 249.3142015 -82.0546875 241.73242188 C-79.37059937 234.77864541 -77.25863319 227.60075238 -75 220.5 C-69.21539494 202.3142015 -69.21539494 202.3142015 -66.0546875 194.73242188 C-63.37059937 187.77864541 -61.25863319 180.60075238 -59 173.5 C-53.18940815 155.23250351 -53.18940815 155.23250351 -50.01074219 147.59619141 C-47.86691751 142.08956541 -46.16506766 136.41678772 -44.37384033 130.78747559 C-39.42103418 115.24481177 -34.24393625 99.78641403 -28.94506836 84.35888672 C-28.34739301 82.61819856 -27.74982167 80.87747469 -27.15234375 79.13671875 C-26.84199692 78.23256226 -26.53165009 77.32840576 -26.2118988 76.39685059 C-23.20141148 67.61267583 -20.22629088 58.81665142 -17.25390625 50.01953125 C-16.87952549 48.91175764 -16.87952549 48.91175764 -16.49758148 47.78160477 C-13.97420133 40.31499535 -11.45225637 32.84790408 -8.93320179 25.37983418 C-7.98677291 22.57500474 -7.03918747 19.77056699 -6.09132195 16.96622276 C-5.64496725 15.64472049 -5.1991462 14.32303784 -4.75387764 13.0011692 C-4.14086084 11.18140765 -3.52592547 9.36229273 -2.91088867 7.54321289 C-2.56450851 6.51660049 -2.21812836 5.4899881 -1.86125183 4.43226624 C-1 2 -1 2 0 0 Z " fill="#A50069" transform="translate(338,296)"/>
<path d="M0 0 C0.87911492 -0.00226556 1.75822983 -0.00453111 2.6639846 -0.00686532 C5.61558737 -0.01320535 8.56714422 -0.01237594 11.51875305 -0.0115509 C13.63279276 -0.01454245 15.74683192 -0.01794497 17.86087036 -0.02172852 C23.60899128 -0.03057461 29.35709731 -0.03290693 35.10522437 -0.0335443 C39.90374719 -0.03449335 44.70226654 -0.03817173 49.50078803 -0.0417164 C60.82448649 -0.04986379 72.148177 -0.05230043 83.47187805 -0.05158997 C95.14951116 -0.05098955 106.82709803 -0.06153359 118.50471944 -0.07733363 C128.53118694 -0.09041581 138.55763935 -0.09577355 148.58411533 -0.09513456 C154.57200006 -0.09487971 160.55984373 -0.09772358 166.54771996 -0.10831261 C172.18245288 -0.11800458 177.81710558 -0.11806517 183.45184135 -0.11079597 C185.5169766 -0.1097514 187.58211686 -0.11210543 189.6472435 -0.11815643 C192.4728492 -0.12589759 195.29817934 -0.12121742 198.1237793 -0.11352539 C198.93528008 -0.11866895 199.74678086 -0.12381252 200.58287257 -0.12911195 C207.68392593 -0.08658331 214.81299136 0.81007997 221.06684875 4.38371277 C221.75134094 4.76011902 222.43583313 5.13652527 223.1410675 5.52433777 C231.30104379 11.39154585 233.52059136 17.84576784 236.55903625 27.21183777 C237.01981119 28.58902073 237.48208587 29.96570273 237.94578552 31.34190369 C239.15530758 34.94607141 240.34277157 38.5571427 241.52613831 42.16996765 C242.49871182 45.12657156 243.48696464 48.07781801 244.47604179 51.02893448 C245.65469102 54.54652382 246.82669863 58.06630932 247.99653625 61.58683777 C248.21997585 62.25893532 248.44341545 62.93103287 248.67362595 63.62349701 C249.30158211 65.51798018 249.92433655 67.41418518 250.54682922 69.31047058 C251.0792775 70.92879791 251.0792775 70.92879791 251.6224823 72.57981873 C252.37934875 75.13371277 252.37934875 75.13371277 252.37934875 77.13371277 C244.12934875 77.13371277 235.87934875 77.13371277 227.37934875 77.13371277 C227.37934875 81.09371277 227.37934875 85.05371277 227.37934875 89.13371277 C228.24737122 89.11800232 229.11539368 89.10229187 230.00971985 89.08610535 C233.22633162 89.03501722 236.44273688 88.9973825 239.65962219 88.96891785 C241.05259497 88.95381919 242.44552013 88.93333833 243.83833313 88.90739441 C245.83877761 88.87106155 247.83956702 88.85560084 249.84028625 88.84074402 C251.04475403 88.82503357 252.2492218 88.80932312 253.4901886 88.7931366 C254.44361145 88.90552673 255.3970343 89.01791687 256.37934875 89.13371277 C258.37934875 92.13371277 258.37934875 92.13371277 258.37934875 95.13371277 C248.14934875 95.13371277 237.91934875 95.13371277 227.37934875 95.13371277 C227.37934875 99.09371277 227.37934875 103.05371277 227.37934875 107.13371277 C239.25934875 107.13371277 251.13934875 107.13371277 263.37934875 107.13371277 C263.70934875 108.78371277 264.03934875 110.43371277 264.37934875 112.13371277 C156.46934875 112.13371277 48.55934875 112.13371277 -62.62065125 112.13371277 C-62.29065125 110.48371277 -61.96065125 108.83371277 -61.62065125 107.13371277 C-49.08065125 107.13371277 -36.54065125 107.13371277 -23.62065125 107.13371277 C-23.62065125 103.17371277 -23.62065125 99.21371277 -23.62065125 95.13371277 C-34.84065125 95.13371277 -46.06065125 95.13371277 -57.62065125 95.13371277 C-56.96065125 93.15371277 -56.30065125 91.17371277 -55.62065125 89.13371277 C-45.06065125 89.13371277 -34.50065125 89.13371277 -23.62065125 89.13371277 C-23.62065125 85.17371277 -23.62065125 81.21371277 -23.62065125 77.13371277 C-32.53065125 77.13371277 -41.44065125 77.13371277 -50.62065125 77.13371277 C-49.49812797 69.27604981 -49.49812797 69.27604981 -48.15971375 65.83293152 C-47.85855652 65.03701599 -47.55739929 64.24110046 -47.24711609 63.42106628 C-46.91663269 62.56311462 -46.58614929 61.70516296 -46.24565125 60.82121277 C-43.56807928 53.73341263 -41.10123372 46.61035514 -38.85502625 39.37590027 C-38.61839264 38.61946732 -38.38175903 37.86303436 -38.13795471 37.0836792 C-37.18628453 34.03883147 -36.23501412 30.99444512 -35.31871033 27.93873596 C-30.13315364 10.65442041 -30.13315364 10.65442041 -21.55033875 5.17277527 C-20.54229187 4.70613464 -19.534245 4.23949402 -18.49565125 3.75871277 C-17.48244812 3.27660339 -16.469245 2.79449402 -15.42533875 2.29777527 C-10.2365875 0.1442267 -5.5779733 -0.01050023 0 0 Z " fill="#62015F" transform="translate(411.6206512451172,154.8662872314453)"/>
<path d="M0 0 C1.43450767 2.77187346 2.3391757 5.06893159 2.81640625 8.16015625 C2.94080078 8.95486328 3.06519531 9.74957031 3.19335938 10.56835938 C3.31517578 11.39142578 3.43699219 12.21449219 3.5625 13.0625 C3.68818359 13.85849609 3.81386719 14.65449219 3.94335938 15.47460938 C5.56448437 26.05860347 6.16318591 36.52812508 6.203125 47.23046875 C6.20995804 48.48395615 6.21679108 49.73744354 6.22383118 51.02891541 C6.24087806 55.08180886 6.247239 59.13457949 6.25 63.1875 C6.2515465 64.22044315 6.2515465 64.22044315 6.25312424 65.27425385 C6.28469202 87.7028981 5.56447438 109.94892488 3.35986328 132.28051758 C2.93632827 136.6580996 2.58961985 141.03940546 2.26147461 145.42504883 C2 148 2 148 1.46826172 150.94140625 C0.89976602 154.12355945 0.91668934 155.93577841 2 159 C5.83786639 162.83786639 10.14051003 165.65320978 14.71582031 168.54345703 C17.80859622 170.51561405 20.81697761 172.60137634 23.83374023 174.68725586 C26.23427582 176.34479817 28.64529399 177.98610837 31.05859375 179.625 C35.98475111 182.97980754 40.87169702 186.3885949 45.75 189.8125 C52.92702776 194.84850528 60.11376294 199.87006528 67.3125 204.875 C68.2725293 205.54249268 69.23255859 206.20998535 70.22167969 206.89770508 C72.17328577 208.25447232 74.1249461 209.61116153 76.07666016 210.96777344 C81.8414414 214.97529299 87.60438963 218.98544798 93.36767578 222.99511719 C98.19632948 226.35439489 103.02543618 229.71301759 107.85546875 233.0703125 C119.42591986 241.11385892 130.98211363 249.17727875 142.52197266 257.26464844 C145.07977845 259.0558685 147.63928552 260.84463439 150.19921875 262.6328125 C157.88062714 267.99985807 165.55778127 273.37210941 173.1875 278.8125 C173.76999512 279.22725586 174.35249023 279.64201172 174.95263672 280.06933594 C178.87614196 282.87614196 178.87614196 282.87614196 180 284 C179.84927257 292.66878459 178.32445384 301.32790658 176.953125 309.87524414 C176.62180352 311.9575898 176.30690945 314.04204202 175.9921875 316.12695312 C175.77964156 317.46890809 175.56613506 318.81071134 175.3515625 320.15234375 C175.16416504 321.34851318 174.97676758 322.54468262 174.78369141 323.77709961 C173.9934504 327.02693499 172.87628383 329.25353211 171 332 C166.11850223 331.42935477 161.81477881 330.3911 157.1875 328.75 C151.65129709 326.83263418 146.09457013 325.14759908 140.4375 323.625 C133.5611397 321.76664517 126.77721649 319.6918157 120 317.5 C113.36686694 315.35599172 106.73055556 313.31579736 100 311.5 C92.31215792 309.42594189 84.74779796 307.03450929 77.171875 304.5859375 C71.47919231 302.75728244 65.77247522 301.05739475 60 299.5 C53.41520851 297.72278984 46.92503511 295.72901864 40.4375 293.625 C31.32510383 290.67371148 22.15208588 288.01354531 12.91381836 285.48486328 C5.56231847 283.46790239 -1.72478149 281.27657407 -9 279 C-9.05160278 280.00800659 -9.05160278 280.00800659 -9.10424805 281.03637695 C-10.86985823 314.13404001 -14.23042003 347.15977216 -18.1875 380.0625 C-18.34202637 381.35526855 -18.49655273 382.64803711 -18.65576172 383.97998047 C-19.49398872 390.72311166 -20.53853313 397.36278305 -22 404 C-21.01 404.33 -20.02 404.66 -19 405 C-18.92136719 405.67417969 -18.84273437 406.34835937 -18.76171875 407.04296875 C-17.7716459 410.88648231 -15.86602409 413.96188713 -13.8125 417.3125 C-12.90818716 418.81991256 -12.00458418 420.32775111 -11.1015625 421.8359375 C-10.60817383 422.65545898 -10.11478516 423.47498047 -9.60644531 424.31933594 C-6.5987151 429.33831432 -3.64351426 434.3879514 -0.6875 439.4375 C-0.10137939 440.43112549 0.48474121 441.42475098 1.08862305 442.44848633 C1.65363525 443.41294678 2.21864746 444.37740723 2.80078125 445.37109375 C3.29747314 446.21599365 3.79416504 447.06089355 4.3059082 447.93139648 C6.6714423 452.21622111 8.81114305 456.62228611 11 461 C-9.79 461 -30.58 461 -52 461 C-52.08021762 445.10799843 -52.08021762 445.10799843 -52.09765625 438.34765625 C-52.1096242 433.72993388 -52.12380085 429.11229061 -52.15087891 424.49462891 C-52.1725674 420.77287808 -52.18456014 417.05121206 -52.18975449 413.32940292 C-52.19345745 411.90758809 -52.20068819 410.48577803 -52.21146011 409.06399918 C-52.22592119 407.07672886 -52.22681646 405.08937369 -52.22705078 403.10205078 C-52.231492 401.96953888 -52.23593323 400.83702698 -52.24050903 399.67019653 C-52 397 -52 397 -50 395 C-45.74416099 395.06615294 -43.57814666 396.94905535 -40.65039062 399.90039062 C-40.16763672 400.40763672 -39.68488281 400.91488281 -39.1875 401.4375 C-38.68541016 401.94087891 -38.18332031 402.44425781 -37.66601562 402.96289062 C-34 406.71868622 -34 406.71868622 -34 409 C-33.34 409 -32.68 409 -32 409 C-31.94739014 408.41879395 -31.89478027 407.83758789 -31.84057617 407.23876953 C-31.30338248 401.5700652 -30.5952945 395.94490976 -29.79516602 390.30786133 C-23.43595779 345.07931966 -19.64673135 299.51142535 -16 254 C-15.86397175 252.31021818 -15.72790793 250.62043922 -15.59179688 248.93066406 C-15.00921421 241.68113528 -14.43938415 234.43065308 -13.875 227.1796875 C-12.69219176 211.99174406 -11.47540651 196.80646931 -10.26191711 181.62095261 C-10.0628061 179.12883118 -9.86385052 176.63669737 -9.66491699 174.14456177 C-8.1657478 155.36935913 -6.64443102 136.59654321 -5.05599976 117.8286438 C-4.58179865 112.19831545 -4.11878752 106.56705762 -3.65718079 100.9356842 C-3.29618017 96.54142837 -2.92774501 92.1480594 -2.54248047 87.75585938 C0.01737383 58.47450553 0.35874691 29.38470728 0 0 Z " fill="#D7F0FE" transform="translate(573,408)"/>
<path d="M0 0 C2.27461843 19.04909763 3.98385696 38.10789829 5.40722656 57.23681641 C5.61362113 59.99588339 5.8245599 62.75459444 6.03562355 65.51330757 C7.47478877 84.33466648 8.7787652 103.16325371 10 122 C9.67 121.34 9.34 120.68 9 120 C7.83726562 120.37511719 6.67453125 120.75023437 5.4765625 121.13671875 C-2.58255253 123.7188643 -10.64234451 126.22887473 -18.8125 128.4375 C-26.56133371 130.53574881 -34.18947049 132.94522822 -41.82739258 135.41381836 C-48.23628962 137.47256258 -54.67379252 139.33285769 -61.171875 141.0859375 C-67.17055292 142.72387438 -73.08362808 144.58780245 -79 146.5 C-85.63319058 148.64387651 -92.26948397 150.68400916 -99 152.5 C-106.70648061 154.58119202 -114.29652253 156.9651728 -121.89404297 159.41186523 C-128.1187843 161.41286952 -134.35854509 163.33436421 -140.6418457 165.14306641 C-144.55199156 166.27015529 -148.44085487 167.446708 -152.3203125 168.67578125 C-153.67455322 169.09911743 -153.67455322 169.09911743 -155.05615234 169.53100586 C-156.81201871 170.0811264 -158.56513794 170.64011768 -160.31494141 171.20922852 C-167.67262174 173.49523233 -167.67262174 173.49523233 -172 172 C-173.4196371 167.29695851 -174.4766019 162.71304692 -175.25390625 157.8515625 C-175.35968491 157.1947348 -175.46546356 156.5379071 -175.57444763 155.86117554 C-175.79571322 154.48166642 -176.01493223 153.1018276 -176.23217773 151.72167969 C-176.56067984 149.63655325 -176.89600584 147.55261266 -177.23242188 145.46875 C-178.32301976 138.65929705 -179.32273313 131.8639856 -180 125 C-168.76513573 116.89999387 -157.39829796 108.9934493 -146.02001953 101.09667969 C-141.17750991 97.73471747 -136.33887913 94.36718445 -131.5 91 C-125.7155618 86.97552886 -119.930742 82.95160984 -114.14453125 78.9296875 C-112.2004853 77.57817611 -110.25647472 76.22661384 -108.3125 74.875 C-107.35891602 74.21201904 -106.40533203 73.54903809 -105.42285156 72.8659668 C-99.18848986 68.52908903 -92.9668075 64.17448866 -86.75 59.8125 C-80.30091886 55.28844149 -73.82172683 50.81205563 -67.3125 46.375 C-59.95042814 41.35578282 -52.65310728 36.25255031 -45.3828125 31.1015625 C-33.66041666 22.79708617 -21.88707474 14.56384448 -10.02319336 6.46264648 C-7.52084103 4.75103616 -5.04116586 3.03121293 -2.625 1.19921875 C-1 0 -1 0 0 0 Z " fill="#FEFDFE" transform="translate(473,567)"/>
<path d="M0 0 C7.45254645 4.66447872 14.73940742 9.51533154 21.9375 14.5625 C22.93330078 15.25794922 23.92910156 15.95339844 24.95507812 16.66992188 C27.971735 18.77755436 30.98615592 20.88834786 34 23 C35.70958914 24.1966807 37.419222 25.39329893 39.12890625 26.58984375 C41.56817749 28.29733362 44.00726163 30.00508778 46.44580078 31.71362305 C55.64040835 38.15420684 64.8587911 44.56054855 74.07666016 50.96777344 C79.8414414 54.97529299 85.60438963 58.98544798 91.36767578 62.99511719 C96.19632948 66.35439489 101.02543618 69.71301759 105.85546875 73.0703125 C117.42591986 81.11385892 128.98211363 89.17727875 140.52197266 97.26464844 C143.07977845 99.0558685 145.63928552 100.84463439 148.19921875 102.6328125 C155.88062714 107.99985807 163.55778127 113.37210941 171.1875 118.8125 C171.76999512 119.22725586 172.35249023 119.64201172 172.95263672 120.06933594 C176.87614196 122.87614196 176.87614196 122.87614196 178 124 C177.84927257 132.66878459 176.32445384 141.32790658 174.953125 149.87524414 C174.62180352 151.9575898 174.30690945 154.04204202 173.9921875 156.12695312 C173.77964156 157.46890809 173.56613506 158.81071134 173.3515625 160.15234375 C173.16416504 161.34851318 172.97676758 162.54468262 172.78369141 163.77709961 C171.9934504 167.02693499 170.87628383 169.25353211 169 172 C164.11850223 171.42935477 159.81477881 170.3911 155.1875 168.75 C149.65129709 166.83263418 144.09457013 165.14759908 138.4375 163.625 C130.61456729 161.51083144 122.91331736 159.09014533 115.2043457 156.59521484 C108.51004624 154.44290774 101.78374073 152.47844532 94.984375 150.68554688 C93.64080995 150.3264907 92.3013892 149.95149289 90.96704102 149.55957031 C88.99945538 148.97189528 88.99945538 148.97189528 86.95288086 148.58886719 C82.11353032 147.34186829 80.1874003 145.30973763 77.61328125 141.046875 C76.4888526 138.96076396 75.38995651 136.86075497 74.3125 134.75 C73.09070383 132.46308196 71.86802867 130.17663333 70.64453125 127.890625 C70.03561035 126.73369141 69.42668945 125.57675781 68.79931641 124.38476562 C66.13156445 119.36635136 63.31828632 114.43491384 60.5 109.5 C59.42604011 107.60475744 58.35313176 105.70891865 57.28125 103.8125 C56.745 102.86375 56.20875 101.915 55.65625 100.9375 C52.16520406 94.74583361 48.69997446 88.53968943 45.23046875 82.3359375 C41.33841963 75.38030205 37.42666228 68.43614796 33.5 61.5 C28.39236749 52.47775862 23.31627626 43.43828576 18.26123047 34.38647461 C15.27169538 29.03781919 12.26477237 23.70008693 9.2265625 18.37890625 C8.62199219 17.31800781 8.01742187 16.25710938 7.39453125 15.1640625 C6.23669234 13.13464948 5.0753693 11.10721931 3.91015625 9.08203125 C3.39582031 8.1796875 2.88148438 7.27734375 2.3515625 6.34765625 C1.89604004 5.55367432 1.44051758 4.75969238 0.97119141 3.94165039 C0 2 0 2 0 0 Z " fill="#FEFDFE" transform="translate(575,568)"/>
<path d="M0 0 C108.24 0 216.48 0 328 0 C330.60236589 6.50591473 333.07162146 12.92177972 335.25 19.5625 C335.6521875 20.7700293 335.6521875 20.7700293 336.0625 22.00195312 C338 27.85893654 338 27.85893654 338 29 C223.49 29 108.98 29 -9 29 C-6.80434178 19.119538 -3.34363664 9.55324754 0 0 Z " fill="#FCDE00" transform="translate(348,267)"/>
<path d="M0 0 C2.27461843 19.04909763 3.98385696 38.10789829 5.40722656 57.23681641 C5.61362113 59.99588339 5.8245599 62.75459444 6.03562355 65.51330757 C7.47478877 84.33466648 8.7787652 103.16325371 10 122 C9.67 121.34 9.34 120.68 9 120 C7.83726562 120.37511719 6.67453125 120.75023437 5.4765625 121.13671875 C-2.58255253 123.7188643 -10.64234451 126.22887473 -18.8125 128.4375 C-26.55392722 130.53374326 -34.17518139 132.93973318 -41.80541992 135.40722656 C-48.44147915 137.5398086 -55.11153753 139.46808901 -61.83984375 141.28588867 C-67.23836401 142.75456746 -72.53264589 144.44549918 -77.8125 146.30078125 C-80 147 -80 147 -82 147 C-80.62595793 143.39471532 -79.02707054 140.02939875 -77.19921875 136.6328125 C-76.64121582 135.59471436 -76.08321289 134.55661621 -75.50830078 133.48706055 C-74.90743652 132.37758057 -74.30657227 131.26810059 -73.6875 130.125 C-73.06085449 128.96460205 -72.43420898 127.8042041 -71.78857422 126.60864258 C-67.29991235 118.31601196 -62.69930125 110.08995872 -58.03564453 101.89453125 C-53.64634196 94.17336699 -49.34342724 86.40651901 -45.0625 78.625 C-39.49667771 68.51067464 -33.89177269 58.41973967 -28.2409668 48.35253906 C-23.12310366 39.23165288 -18.04310887 30.09003586 -12.97241211 20.94287109 C-12.38081299 19.87633301 -11.78921387 18.80979492 -11.1796875 17.7109375 C-10.62893555 16.71545898 -10.07818359 15.71998047 -9.51074219 14.69433594 C-8.2308008 12.41162212 -6.91072245 10.16139312 -5.5703125 7.9140625 C-3.76280936 5.11154573 -3.76280936 5.11154573 -4 2 C-1 0 -1 0 0 0 Z " fill="#D7F0FE" transform="translate(473,567)"/>
<path d="M0 0 C112.2 0 224.4 0 340 0 C343 8 343 8 344 12 C229.49 12 114.98 12 -3 12 C-1 3 -1 3 0 0 Z " fill="#FDDE00" transform="translate(342,284)"/>
<path d="M0 0 C110.88 0 221.76 0 336 0 C336.66 1.65 337.32 3.3 338 5 C226.13 5 114.26 5 -1 5 C-0.67 3.35 -0.34 1.7 0 0 Z " fill="#6E0061" transform="translate(344,279)"/>
<path d="M0 0 C0.33 0 0.66 0 1 0 C1.19110352 1.10811035 1.38220703 2.2162207 1.57910156 3.35791016 C2.30206595 7.53781628 3.03513385 11.71590163 3.77099609 15.89355469 C4.08585428 17.68898456 4.39810692 19.48487367 4.70751953 21.28125 C6.41071385 31.15867467 8.26554591 40.77985502 11.25683594 50.36083984 C12 53 12 53 12 56 C-2.52 56 -17.04 56 -32 56 C-30.42163967 52.05409919 -28.79341559 48.71088023 -26.69140625 45.0546875 C-26.20717697 44.20935959 -26.20717697 44.20935959 -25.71316528 43.34695435 C-24.66615907 41.52110094 -23.61449433 39.69798323 -22.5625 37.875 C-21.83872566 36.61601353 -21.11517566 35.35689808 -20.3918457 34.09765625 C-18.94515871 31.58057024 -17.49640359 29.06469226 -16.04589844 26.54980469 C-14.2255226 23.39317069 -12.41262776 20.2322991 -10.6015625 17.0703125 C-9.63050894 15.3800356 -8.65917763 13.68991822 -7.6875 12 C-7.25058838 11.23671387 -6.81367676 10.47342773 -6.36352539 9.68701172 C-2.42268468 2.86249513 -2.42268468 2.86249513 0 0 Z " fill="#D7F1FF" transform="translate(495,813)"/>
<path d="M0 0 C12.54 0 25.08 0 38 0 C38 3.96 38 7.92 38 12 C25.46 12 12.92 12 0 12 C0 8.04 0 4.08 0 0 Z " fill="#F8D803" transform="translate(564,250)"/>
<path d="M0 0 C12.54 0 25.08 0 38 0 C38 3.96 38 7.92 38 12 C25.46 12 12.92 12 0 12 C0 8.04 0 4.08 0 0 Z " fill="#F9D803" transform="translate(494,250)"/>
<path d="M0 0 C12.54 0 25.08 0 38 0 C38 3.96 38 7.92 38 12 C25.46 12 12.92 12 0 12 C0 8.04 0 4.08 0 0 Z " fill="#F9D804" transform="translate(424,250)"/>
<path d="M0 0 C12.54 0 25.08 0 38 0 C38 3.96 38 7.92 38 12 C25.46 12 12.92 12 0 12 C0 8.04 0 4.08 0 0 Z " fill="#F8D803" transform="translate(564,232)"/>
<path d="M0 0 C12.54 0 25.08 0 38 0 C38 3.96 38 7.92 38 12 C25.46 12 12.92 12 0 12 C0 8.04 0 4.08 0 0 Z " fill="#F8D803" transform="translate(494,232)"/>
<path d="M0 0 C12.54 0 25.08 0 38 0 C38 3.96 38 7.92 38 12 C25.46 12 12.92 12 0 12 C0 8.04 0 4.08 0 0 Z " fill="#F9D804" transform="translate(424,232)"/>
<path d="M0 0 C1.43352212 0.00015908 2.86704998 0.00585132 4.30053711 0.01586914 C5.43041298 0.01799156 5.43041298 0.01799156 6.58311462 0.02015686 C8.99807646 0.02577163 11.41294687 0.03832656 13.82788086 0.05102539 C15.46134307 0.05603849 17.09480672 0.06060173 18.72827148 0.06469727 C22.74067671 0.07574585 26.75301326 0.09302033 30.76538086 0.11352539 C30.76538086 4.07352539 30.76538086 8.03352539 30.76538086 12.11352539 C18.22538086 12.11352539 5.68538086 12.11352539 -7.23461914 12.11352539 C-3.96892053 0.13929716 -3.96892053 0.13929716 0 0 Z " fill="#FAD906" transform="translate(357.234619140625,249.886474609375)"/>
<path d="M0 0 C10.23 0 20.46 0 31 0 C35 9 35 9 35 12 C23.45 12 11.9 12 0 12 C0 8.04 0 4.08 0 0 Z " fill="#F7D704" transform="translate(639,250)"/>
<path d="M0 0 C13.86 0.495 13.86 0.495 28 1 C28 4.96 28 8.92 28 13 C17.44 13 6.88 13 -4 13 C-2.68 8.71 -1.36 4.42 0 0 Z " fill="#FADA05" transform="translate(360,231)"/>
<path d="M0 0 C8.58 0 17.16 0 26 0 C29 9 29 9 29 12 C19.43 12 9.86 12 0 12 C0 8.04 0 4.08 0 0 Z " fill="#F7D806" transform="translate(639,232)"/>
</svg>
