<?xml version="1.0" standalone="no"?>
<!DOCTYPE svg PUBLIC "-//W3C//DTD SVG 20010904//EN"
 "http://www.w3.org/TR/2001/REC-SVG-20010904/DTD/svg10.dtd">
<svg version="1.0" xmlns="http://www.w3.org/2000/svg"
 width="512.000000pt" height="512.000000pt" viewBox="0 0 512.000000 512.000000"
 preserveAspectRatio="xMidYMid meet">
<metadata>
Created by potrace 1.16, written by Peter Selinger 2001-2019
</metadata>
<g transform="translate(0.000000,512.000000) scale(0.100000,-0.100000)"
fill="#000000" stroke="none">
<path d="M3484 4128 l-51 -31 -164 -329 -164 -329 -24 30 c-12 17 -47 51 -76
76 l-53 45 -36 -21 c-20 -11 -36 -26 -36 -32 0 -7 13 -113 30 -237 16 -124 26
-228 22 -231 -4 -4 -34 -23 -67 -43 l-60 -37 48 44 47 43 -22 21 c-49 44 -110
67 -183 67 -61 1 -78 -3 -133 -33 -35 -19 -81 -54 -102 -78 l-38 -43 -283 213
c-386 290 -649 473 -519 361 63 -55 260 -237 260 -240 0 -11 -303 212 -470
346 -52 42 -102 80 -110 85 -43 25 184 -205 382 -387 125 -115 319 -303 431
-419 139 -143 207 -206 213 -198 5 8 -57 76 -187 202 -107 105 -158 159 -114
121 112 -98 248 -211 329 -274 81 -64 96 -45 -129 -172 -88 -49 -197 -114
-243 -144 -45 -30 -85 -54 -88 -54 -2 0 30 39 72 88 42 48 81 97 87 110 10 21
-2 36 -154 188 -141 142 -167 164 -189 159 -21 -4 -58 25 -245 191 -121 107
-295 256 -388 331 -92 74 -167 139 -167 143 0 24 191 170 223 170 4 0 33 -39
64 -87 197 -308 325 -493 339 -493 2 0 -12 26 -32 58 -71 110 -231 368 -280
452 -35 60 -56 86 -72 88 -35 5 -139 -57 -218 -131 -41 -38 -74 -75 -74 -82 0
-7 78 -79 174 -159 95 -80 179 -152 185 -160 10 -12 8 -18 -13 -31 -28 -18
-33 -44 -16 -76 14 -24 36 -24 78 1 18 11 35 20 37 20 4 0 148 -131 308 -280
17 -16 16 -18 -13 -48 -36 -38 -40 -82 -10 -112 27 -27 33 -26 109 17 l65 36
99 -104 c54 -57 103 -112 108 -121 8 -15 -5 -29 -78 -85 -361 -281 -595 -516
-760 -763 -74 -110 -148 -243 -184 -329 -51 -121 -148 -413 -135 -408 733 295
787 322 1246 628 281 188 321 205 494 219 221 19 215 20 434 -73 109 -46 252
-106 320 -133 l123 -49 -28 -23 c-88 -73 -86 -71 -79 -105 3 -17 14 -38 23
-45 34 -25 62 -13 137 58 40 38 77 70 82 70 5 0 158 -54 339 -120 345 -126
446 -160 474 -160 31 0 254 269 325 393 28 46 28 47 6 47 -11 0 -19 -4 -16 -8
3 -5 -11 -24 -30 -43 -39 -37 -201 -227 -255 -299 -28 -36 -39 -45 -57 -40
-20 4 -11 18 89 135 62 72 132 157 156 190 25 33 55 63 66 67 20 5 20 6 -4 7
-19 1 -35 -10 -59 -42 -92 -115 -285 -337 -293 -337 -5 0 -53 42 -106 93 -127
121 -320 285 -453 383 -103 76 -470 317 -553 364 -38 21 -38 22 -10 17 49 -9
112 12 160 55 38 34 126 142 175 216 l15 23 315 -56 c173 -31 329 -59 346 -62
20 -3 36 0 46 10 9 9 17 15 20 14 2 -1 -6 7 -19 18 -29 26 -190 127 -378 237
l-149 87 -25 -22 -24 -22 12 22 c32 63 -7 105 -120 129 -44 10 -79 22 -79 28
0 6 10 32 23 57 l22 46 195 -23 c107 -13 240 -26 295 -29 l100 -5 -45 16 c-25
8 -139 39 -254 69 -114 30 -209 55 -211 57 -1 2 71 104 161 228 211 292 196
264 143 256 -23 -4 -53 -14 -65 -24 -12 -9 -84 -87 -160 -172 -75 -85 -140
-159 -144 -163 -4 -5 -64 8 -133 29 l-125 37 19 31 c20 32 25 56 12 56 -5 0
-16 -14 -25 -30 -9 -17 -28 -34 -41 -39 -22 -9 -36 -23 -86 -90 -14 -19 -21
-22 -35 -14 -16 9 -12 15 35 54 128 108 118 89 212 374 47 143 102 314 121
380 18 66 37 128 41 138 9 22 9 22 -51 -15z m-9 -144 c-9 -27 -26 -45 -66 -70
-29 -18 -55 -31 -57 -29 -11 10 39 71 83 101 28 18 51 34 51 34 1 0 -4 -16
-11 -36z m-29 -91 c-6 -21 -49 -150 -95 -286 -83 -247 -84 -249 -118 -264 -19
-8 -37 -12 -40 -10 -2 3 38 103 91 224 52 120 104 242 115 271 19 47 49 102
56 102 2 0 -2 -17 -9 -37z m-189 -235 c-47 -106 -106 -242 -132 -303 -42 -96
-97 -195 -110 -195 -7 0 5 27 110 255 177 381 208 445 212 441 3 -3 -33 -91
-80 -198z m95 -418 c34 -11 72 -20 83 -21 11 0 -2 -7 -30 -15 -52 -14 -118
-16 -170 -5 l-29 6 34 27 c19 15 38 28 42 28 3 0 35 -9 70 -20z m-77 -81 c11
-17 -82 -99 -177 -157 -48 -28 -90 -58 -95 -65 -4 -6 5 -4 19 5 75 49 159 89
201 94 26 4 47 3 47 -1 0 -5 -22 -54 -50 -109 -46 -95 -59 -111 -207 -262
-163 -165 -373 -355 -500 -452 -40 -30 -73 -56 -73 -59 0 -2 3 -2 8 0 4 3 93
56 197 119 105 63 229 140 278 171 78 51 87 54 87 35 0 -12 -18 -37 -41 -59
-98 -91 -575 -411 -735 -493 -38 -20 -85 -39 -104 -42 l-35 -6 31 29 c16 15
78 68 137 118 59 49 110 97 113 107 3 9 78 85 167 169 267 251 487 504 487
560 0 26 -13 24 -83 -12 -210 -106 -619 -373 -857 -558 -105 -81 -240 -199
-240 -210 0 -8 27 -6 130 10 144 23 159 28 223 86 112 100 289 238 482 377
230 165 181 115 -132 -137 -120 -97 -265 -218 -321 -271 -100 -92 -122 -108
-122 -86 0 19 -27 10 -39 -14 -14 -26 -148 -145 -316 -282 -74 -60 -104 -90
-92 -92 9 -2 88 33 174 77 90 46 145 70 128 55 -16 -14 -100 -61 -185 -104
-190 -96 -339 -190 -547 -348 -131 -98 -319 -230 -381 -266 -9 -6 -9 3 3 31 9
21 43 102 76 181 33 79 81 187 109 240 46 90 49 95 49 61 1 -37 25 -70 40 -53
35 39 201 265 201 273 0 6 -4 11 -9 11 -16 0 -41 30 -41 49 0 26 117 159 202
231 147 124 391 280 858 548 129 74 326 193 438 264 317 202 473 276 497 237z
m189 -70 c-44 -76 -98 -145 -125 -159 -20 -11 94 174 134 218 35 38 30 9 -9
-59z m-125 47 c12 -14 9 -16 -94 -51 -12 -4 -5 7 19 29 43 39 57 43 75 22z
m-569 -14 c19 -9 35 -23 35 -30 0 -8 -27 -33 -60 -56 -33 -23 -64 -50 -69 -61
-8 -19 -12 -17 -52 23 -41 42 -46 44 -95 40 l-51 -3 37 32 c83 71 181 93 255
55z m-167 -141 c11 -9 23 -25 28 -36 10 -20 10 -20 -5 -1 -40 49 -106 70 -136
44 -12 -11 -12 -10 -1 4 24 32 71 27 114 -11z m839 -18 c-53 -63 -100 -107
-199 -186 -96 -77 -233 -171 -239 -164 -3 2 71 65 163 140 92 74 200 162 238
195 39 34 72 61 73 61 2 1 -14 -20 -36 -46z m-902 -44 c0 -6 -4 -7 -10 -4 -5
3 -10 11 -10 16 0 6 5 7 10 4 6 -3 10 -11 10 -16z m908 -14 c-6 -14 -13 -23
-15 -21 -5 5 15 46 22 46 3 0 -1 -11 -7 -25z m-1797 -25 c-25 -21 -41 -26 -41
-12 0 9 38 30 55 31 6 0 -1 -9 -14 -19z m14 -20 c-3 -5 -12 -10 -18 -10 -7 0
-6 4 3 10 19 12 23 12 15 0z m1948 -37 c9 -9 17 -22 17 -29 0 -7 -34 -49 -75
-93 -41 -44 -75 -86 -75 -93 0 -7 -34 -51 -76 -98 -42 -47 -80 -93 -85 -102
-14 -26 -22 -22 -43 23 -24 52 -94 99 -148 99 -21 0 -38 4 -38 8 0 4 13 23 30
42 16 19 29 42 30 51 0 20 52 53 205 134 164 87 213 98 258 58z m277 -282
c124 -38 251 -76 282 -85 54 -15 86 -36 55 -36 -7 0 -124 20 -258 45 -134 24
-271 49 -304 55 -33 6 -70 13 -83 16 l-23 5 31 44 c27 39 33 43 53 35 12 -6
123 -41 247 -79z m-399 -28 c-5 -10 -45 -52 -87 -93 -43 -41 -72 -66 -64 -55
14 21 152 165 158 165 1 0 -2 -8 -7 -17z m-291 -38 c41 -30 59 -60 59 -95 -1
-24 -1 -24 -9 4 -19 61 -101 116 -151 101 -15 -5 -19 -4 -15 4 13 21 80 12
116 -14z m-140 -155 l21 -29 -46 15 c-50 18 -49 15 -34 69 l11 39 14 -33 c7
-18 23 -45 34 -61z m81 63 c13 -15 12 -15 -8 -4 -24 12 -29 21 -14 21 5 0 15
-7 22 -17z m88 -22 c28 -18 4 -25 -29 -9 -32 16 -33 18 -10 18 14 0 31 -4 39
-9z m-169 -238 l85 -6 325 -210 c269 -174 520 -349 520 -362 0 -2 -17 5 -37
15 -21 10 -94 43 -163 73 -282 125 -418 190 -553 266 -218 122 -490 285 -494
297 -2 6 6 15 17 20 17 7 42 -1 119 -39 86 -43 106 -49 181 -54z m-297 -24
c45 -17 197 -88 337 -156 140 -69 387 -185 548 -259 161 -74 315 -145 342
-159 44 -23 217 -135 207 -135 -3 0 -144 56 -314 124 -292 117 -642 269 -1028
446 -93 43 -198 88 -232 100 -35 13 -63 24 -63 26 0 9 77 43 98 44 12 0 60
-14 105 -31z m-654 -101 c0 -33 -2 -38 -9 -23 -12 28 -12 65 0 65 6 0 10 -19
9 -42z m-855 -120 c-26 -43 -54 -79 -54 -72 0 11 49 84 56 84 3 0 2 -6 -2 -12z
m836 -88 c-47 -42 -204 -153 -183 -130 16 17 216 169 223 169 3 0 -15 -18 -40
-39z m-220 -74 c0 -1 -44 -37 -97 -78 -113 -86 -272 -189 -423 -273 -58 -32
-120 -67 -139 -78 -19 -12 -31 -16 -27 -9 11 19 79 63 323 211 126 75 257 158
293 184 66 47 70 50 70 43z m1584 -161 c-10 -9 -31 -22 -45 -30 -23 -12 -29
-12 -38 -1 -9 10 -9 16 -1 21 6 4 10 3 9 -2 -4 -22 4 -21 43 7 41 30 70 34 32
5z"/>
<path d="M2853 2889 c-35 -22 -46 -37 -15 -20 22 13 58 40 52 41 -3 0 -20 -10
-37 -21z"/>
<path d="M1360 1781 c-15 -4 -59 -48 -113 -116 l-88 -110 38 -3 c76 -7 263 54
263 86 0 7 -7 44 -16 83 -17 74 -21 77 -84 60z"/>
<path d="M1450 1753 c4 -21 11 -55 14 -75 4 -21 12 -38 19 -38 7 0 30 16 52
34 34 29 38 37 29 53 -16 26 -73 63 -99 63 -21 0 -22 -3 -15 -37z"/>
<path d="M1059 1433 c-13 -16 -12 -17 4 -4 9 7 17 15 17 17 0 8 -8 3 -21 -13z"/>
<path d="M1217 3958 c-47 -79 -52 -97 -36 -113 8 -7 23 -15 34 -17 18 -3 21 4
27 82 4 46 5 86 3 88 -2 2 -15 -16 -28 -40z"/>
<path d="M950 3677 c0 -3 50 -43 112 -89 153 -113 148 -110 148 -104 0 6 -110
92 -192 150 -38 26 -68 45 -68 43z"/>
<path d="M1407 3568 c241 -295 519 -606 657 -737 65 -62 38 -20 -38 58 -96 99
-321 350 -520 579 -87 100 -160 182 -163 182 -2 0 27 -37 64 -82z"/>
<path d="M1540 3236 c0 -2 8 -10 18 -17 15 -13 16 -12 3 4 -13 16 -21 21 -21
13z"/>
<path d="M4004 1732 c7 -11 326 -240 356 -256 30 -15 -37 36 -170 131 -188
134 -195 138 -186 125z"/>
</g>
</svg>